<mxfile host="Electron" agent="Mozilla/5.0 (X11; Linux x86_64) AppleWebKit/537.36 (KHTML, like Gecko) draw.io/26.0.9 Chrome/128.0.6613.186 Electron/32.3.0 Safari/537.36" version="26.0.9">
  <diagram name="Page-1" id="Cpb6ofvsXnPa75wf4oSq">
    <mxGraphModel dx="1389" dy="859" grid="1" gridSize="10" guides="1" tooltips="1" connect="1" arrows="1" fold="1" page="1" pageScale="1" pageWidth="850" pageHeight="1100" math="0" shadow="0">
      <root>
        <mxCell id="0" />
        <mxCell id="1" parent="0" />
        <mxCell id="wyrxIgk_xjYUaQW7N5oR-23" value="DMux8Way" style="text;html=1;align=center;verticalAlign=middle;whiteSpace=wrap;rounded=0;fontSize=30;" vertex="1" parent="1">
          <mxGeometry x="365" y="20" width="60" height="30" as="geometry" />
        </mxCell>
        <mxCell id="wyrxIgk_xjYUaQW7N5oR-35" value="" style="group" vertex="1" connectable="0" parent="1">
          <mxGeometry x="390" y="220" width="210" height="140" as="geometry" />
        </mxCell>
        <mxCell id="wyrxIgk_xjYUaQW7N5oR-2" value="DMux4Way" style="triangle;whiteSpace=wrap;html=1;direction=west;" vertex="1" parent="wyrxIgk_xjYUaQW7N5oR-35">
          <mxGeometry x="50" width="120" height="110" as="geometry" />
        </mxCell>
        <mxCell id="wyrxIgk_xjYUaQW7N5oR-3" value="" style="endArrow=classic;html=1;rounded=0;entryX=1;entryY=0.5;entryDx=0;entryDy=0;" edge="1" parent="wyrxIgk_xjYUaQW7N5oR-35" target="wyrxIgk_xjYUaQW7N5oR-2">
          <mxGeometry width="50" height="50" relative="1" as="geometry">
            <mxPoint y="55" as="sourcePoint" />
            <mxPoint as="targetPoint" />
          </mxGeometry>
        </mxCell>
        <mxCell id="wyrxIgk_xjYUaQW7N5oR-4" value="" style="endArrow=none;html=1;rounded=0;entryX=1;entryY=0.5;entryDx=0;entryDy=0;startFill=0;" edge="1" parent="wyrxIgk_xjYUaQW7N5oR-35">
          <mxGeometry width="50" height="50" relative="1" as="geometry">
            <mxPoint x="170" y="10" as="sourcePoint" />
            <mxPoint x="210" y="10" as="targetPoint" />
          </mxGeometry>
        </mxCell>
        <mxCell id="wyrxIgk_xjYUaQW7N5oR-5" value="" style="endArrow=none;html=1;rounded=0;entryX=1;entryY=0.5;entryDx=0;entryDy=0;startFill=0;" edge="1" parent="wyrxIgk_xjYUaQW7N5oR-35">
          <mxGeometry width="50" height="50" relative="1" as="geometry">
            <mxPoint x="170" y="40" as="sourcePoint" />
            <mxPoint x="210" y="40" as="targetPoint" />
          </mxGeometry>
        </mxCell>
        <mxCell id="wyrxIgk_xjYUaQW7N5oR-6" value="" style="endArrow=classic;html=1;rounded=0;entryX=0.5;entryY=0;entryDx=0;entryDy=0;" edge="1" parent="wyrxIgk_xjYUaQW7N5oR-35">
          <mxGeometry width="50" height="50" relative="1" as="geometry">
            <mxPoint x="130" y="137.5" as="sourcePoint" />
            <mxPoint x="130" y="90" as="targetPoint" />
          </mxGeometry>
        </mxCell>
        <mxCell id="wyrxIgk_xjYUaQW7N5oR-7" value="sel[0]" style="edgeLabel;html=1;align=center;verticalAlign=middle;resizable=0;points=[];" vertex="1" connectable="0" parent="wyrxIgk_xjYUaQW7N5oR-6">
          <mxGeometry x="0.0274" relative="1" as="geometry">
            <mxPoint y="7" as="offset" />
          </mxGeometry>
        </mxCell>
        <mxCell id="wyrxIgk_xjYUaQW7N5oR-18" value="" style="endArrow=none;html=1;rounded=0;entryX=1;entryY=0.5;entryDx=0;entryDy=0;startFill=0;" edge="1" parent="wyrxIgk_xjYUaQW7N5oR-35">
          <mxGeometry width="50" height="50" relative="1" as="geometry">
            <mxPoint x="170" y="70" as="sourcePoint" />
            <mxPoint x="210" y="70" as="targetPoint" />
          </mxGeometry>
        </mxCell>
        <mxCell id="wyrxIgk_xjYUaQW7N5oR-19" value="" style="endArrow=none;html=1;rounded=0;entryX=1;entryY=0.5;entryDx=0;entryDy=0;startFill=0;" edge="1" parent="wyrxIgk_xjYUaQW7N5oR-35">
          <mxGeometry width="50" height="50" relative="1" as="geometry">
            <mxPoint x="170" y="100" as="sourcePoint" />
            <mxPoint x="210" y="100" as="targetPoint" />
          </mxGeometry>
        </mxCell>
        <mxCell id="wyrxIgk_xjYUaQW7N5oR-20" value="" style="endArrow=classic;html=1;rounded=0;entryX=0.5;entryY=0;entryDx=0;entryDy=0;" edge="1" parent="wyrxIgk_xjYUaQW7N5oR-35">
          <mxGeometry width="50" height="50" relative="1" as="geometry">
            <mxPoint x="90" y="140" as="sourcePoint" />
            <mxPoint x="90" y="80" as="targetPoint" />
          </mxGeometry>
        </mxCell>
        <mxCell id="wyrxIgk_xjYUaQW7N5oR-21" value="sel[1]" style="edgeLabel;html=1;align=center;verticalAlign=middle;resizable=0;points=[];" vertex="1" connectable="0" parent="wyrxIgk_xjYUaQW7N5oR-20">
          <mxGeometry x="0.0274" relative="1" as="geometry">
            <mxPoint y="11" as="offset" />
          </mxGeometry>
        </mxCell>
        <mxCell id="wyrxIgk_xjYUaQW7N5oR-36" value="" style="group" vertex="1" connectable="0" parent="1">
          <mxGeometry x="560" y="450" width="210" height="140" as="geometry" />
        </mxCell>
        <mxCell id="wyrxIgk_xjYUaQW7N5oR-37" value="DMux4Way" style="triangle;whiteSpace=wrap;html=1;direction=west;" vertex="1" parent="wyrxIgk_xjYUaQW7N5oR-36">
          <mxGeometry x="50" width="120" height="110" as="geometry" />
        </mxCell>
        <mxCell id="wyrxIgk_xjYUaQW7N5oR-38" value="" style="endArrow=classic;html=1;rounded=0;entryX=1;entryY=0.5;entryDx=0;entryDy=0;" edge="1" parent="wyrxIgk_xjYUaQW7N5oR-36" target="wyrxIgk_xjYUaQW7N5oR-37">
          <mxGeometry width="50" height="50" relative="1" as="geometry">
            <mxPoint y="55" as="sourcePoint" />
            <mxPoint as="targetPoint" />
          </mxGeometry>
        </mxCell>
        <mxCell id="wyrxIgk_xjYUaQW7N5oR-39" value="" style="endArrow=none;html=1;rounded=0;entryX=1;entryY=0.5;entryDx=0;entryDy=0;startFill=0;" edge="1" parent="wyrxIgk_xjYUaQW7N5oR-36">
          <mxGeometry width="50" height="50" relative="1" as="geometry">
            <mxPoint x="170" y="10" as="sourcePoint" />
            <mxPoint x="210" y="10" as="targetPoint" />
          </mxGeometry>
        </mxCell>
        <mxCell id="wyrxIgk_xjYUaQW7N5oR-40" value="" style="endArrow=none;html=1;rounded=0;entryX=1;entryY=0.5;entryDx=0;entryDy=0;startFill=0;" edge="1" parent="wyrxIgk_xjYUaQW7N5oR-36">
          <mxGeometry width="50" height="50" relative="1" as="geometry">
            <mxPoint x="170" y="40" as="sourcePoint" />
            <mxPoint x="210" y="40" as="targetPoint" />
          </mxGeometry>
        </mxCell>
        <mxCell id="wyrxIgk_xjYUaQW7N5oR-41" value="" style="endArrow=classic;html=1;rounded=0;entryX=0.5;entryY=0;entryDx=0;entryDy=0;" edge="1" parent="wyrxIgk_xjYUaQW7N5oR-36">
          <mxGeometry width="50" height="50" relative="1" as="geometry">
            <mxPoint x="130" y="137.5" as="sourcePoint" />
            <mxPoint x="130" y="90" as="targetPoint" />
          </mxGeometry>
        </mxCell>
        <mxCell id="wyrxIgk_xjYUaQW7N5oR-42" value="sel[0]" style="edgeLabel;html=1;align=center;verticalAlign=middle;resizable=0;points=[];" vertex="1" connectable="0" parent="wyrxIgk_xjYUaQW7N5oR-41">
          <mxGeometry x="0.0274" relative="1" as="geometry">
            <mxPoint y="7" as="offset" />
          </mxGeometry>
        </mxCell>
        <mxCell id="wyrxIgk_xjYUaQW7N5oR-43" value="" style="endArrow=none;html=1;rounded=0;entryX=1;entryY=0.5;entryDx=0;entryDy=0;startFill=0;" edge="1" parent="wyrxIgk_xjYUaQW7N5oR-36">
          <mxGeometry width="50" height="50" relative="1" as="geometry">
            <mxPoint x="170" y="70" as="sourcePoint" />
            <mxPoint x="210" y="70" as="targetPoint" />
          </mxGeometry>
        </mxCell>
        <mxCell id="wyrxIgk_xjYUaQW7N5oR-44" value="" style="endArrow=none;html=1;rounded=0;entryX=1;entryY=0.5;entryDx=0;entryDy=0;startFill=0;" edge="1" parent="wyrxIgk_xjYUaQW7N5oR-36">
          <mxGeometry width="50" height="50" relative="1" as="geometry">
            <mxPoint x="170" y="100" as="sourcePoint" />
            <mxPoint x="210" y="100" as="targetPoint" />
          </mxGeometry>
        </mxCell>
        <mxCell id="wyrxIgk_xjYUaQW7N5oR-45" value="" style="endArrow=classic;html=1;rounded=0;entryX=0.5;entryY=0;entryDx=0;entryDy=0;" edge="1" parent="wyrxIgk_xjYUaQW7N5oR-36">
          <mxGeometry width="50" height="50" relative="1" as="geometry">
            <mxPoint x="90" y="140" as="sourcePoint" />
            <mxPoint x="90" y="80" as="targetPoint" />
          </mxGeometry>
        </mxCell>
        <mxCell id="wyrxIgk_xjYUaQW7N5oR-46" value="sel[1]" style="edgeLabel;html=1;align=center;verticalAlign=middle;resizable=0;points=[];" vertex="1" connectable="0" parent="wyrxIgk_xjYUaQW7N5oR-45">
          <mxGeometry x="0.0274" relative="1" as="geometry">
            <mxPoint y="11" as="offset" />
          </mxGeometry>
        </mxCell>
        <mxCell id="wyrxIgk_xjYUaQW7N5oR-58" value="" style="endArrow=classic;html=1;rounded=0;" edge="1" parent="wyrxIgk_xjYUaQW7N5oR-36">
          <mxGeometry width="50" height="50" relative="1" as="geometry">
            <mxPoint x="-170" y="55" as="sourcePoint" />
            <mxPoint x="50" y="54.80000000000001" as="targetPoint" />
          </mxGeometry>
        </mxCell>
        <mxCell id="wyrxIgk_xjYUaQW7N5oR-47" value="" style="endArrow=none;html=1;rounded=0;startFill=0;" edge="1" parent="1">
          <mxGeometry width="50" height="50" relative="1" as="geometry">
            <mxPoint x="30" y="400" as="sourcePoint" />
            <mxPoint x="100" y="400" as="targetPoint" />
          </mxGeometry>
        </mxCell>
        <mxCell id="wyrxIgk_xjYUaQW7N5oR-48" value="&lt;span style=&quot;font-size: 15px;&quot;&gt;in&lt;/span&gt;" style="edgeLabel;html=1;align=center;verticalAlign=middle;resizable=0;points=[];" vertex="1" connectable="0" parent="wyrxIgk_xjYUaQW7N5oR-47">
          <mxGeometry x="-0.046" y="1" relative="1" as="geometry">
            <mxPoint as="offset" />
          </mxGeometry>
        </mxCell>
        <mxCell id="wyrxIgk_xjYUaQW7N5oR-49" value="" style="endArrow=none;html=1;rounded=0;startFill=0;" edge="1" parent="1">
          <mxGeometry width="50" height="50" relative="1" as="geometry">
            <mxPoint x="40" y="680" as="sourcePoint" />
            <mxPoint x="110" y="680" as="targetPoint" />
          </mxGeometry>
        </mxCell>
        <mxCell id="wyrxIgk_xjYUaQW7N5oR-50" value="&lt;span style=&quot;font-size: 15px;&quot;&gt;sel[0]&lt;/span&gt;" style="edgeLabel;html=1;align=center;verticalAlign=middle;resizable=0;points=[];" vertex="1" connectable="0" parent="wyrxIgk_xjYUaQW7N5oR-49">
          <mxGeometry x="-0.046" y="1" relative="1" as="geometry">
            <mxPoint as="offset" />
          </mxGeometry>
        </mxCell>
        <mxCell id="wyrxIgk_xjYUaQW7N5oR-52" value="" style="endArrow=none;html=1;rounded=0;startFill=0;" edge="1" parent="1">
          <mxGeometry width="50" height="50" relative="1" as="geometry">
            <mxPoint x="40" y="720.2" as="sourcePoint" />
            <mxPoint x="110" y="720.2" as="targetPoint" />
          </mxGeometry>
        </mxCell>
        <mxCell id="wyrxIgk_xjYUaQW7N5oR-53" value="&lt;span style=&quot;font-size: 15px;&quot;&gt;sel[1]&lt;/span&gt;" style="edgeLabel;html=1;align=center;verticalAlign=middle;resizable=0;points=[];" vertex="1" connectable="0" parent="wyrxIgk_xjYUaQW7N5oR-52">
          <mxGeometry x="-0.046" y="1" relative="1" as="geometry">
            <mxPoint as="offset" />
          </mxGeometry>
        </mxCell>
        <mxCell id="wyrxIgk_xjYUaQW7N5oR-54" value="" style="endArrow=none;html=1;rounded=0;startFill=0;" edge="1" parent="1">
          <mxGeometry width="50" height="50" relative="1" as="geometry">
            <mxPoint x="40" y="780" as="sourcePoint" />
            <mxPoint x="110" y="780" as="targetPoint" />
          </mxGeometry>
        </mxCell>
        <mxCell id="wyrxIgk_xjYUaQW7N5oR-55" value="&lt;span style=&quot;font-size: 15px;&quot;&gt;sel[2]&lt;/span&gt;" style="edgeLabel;html=1;align=center;verticalAlign=middle;resizable=0;points=[];" vertex="1" connectable="0" parent="wyrxIgk_xjYUaQW7N5oR-54">
          <mxGeometry x="-0.046" y="1" relative="1" as="geometry">
            <mxPoint as="offset" />
          </mxGeometry>
        </mxCell>
        <mxCell id="wyrxIgk_xjYUaQW7N5oR-59" value="" style="endArrow=none;html=1;rounded=0;edgeStyle=orthogonalEdgeStyle;startFill=0;" edge="1" parent="1" source="wyrxIgk_xjYUaQW7N5oR-60">
          <mxGeometry width="50" height="50" relative="1" as="geometry">
            <mxPoint x="110" y="680" as="sourcePoint" />
            <mxPoint x="520" y="360" as="targetPoint" />
          </mxGeometry>
        </mxCell>
        <mxCell id="wyrxIgk_xjYUaQW7N5oR-61" value="" style="endArrow=none;html=1;rounded=0;edgeStyle=orthogonalEdgeStyle;startFill=0;" edge="1" parent="1" target="wyrxIgk_xjYUaQW7N5oR-60">
          <mxGeometry width="50" height="50" relative="1" as="geometry">
            <mxPoint x="110" y="680" as="sourcePoint" />
            <mxPoint x="520" y="360" as="targetPoint" />
          </mxGeometry>
        </mxCell>
        <mxCell id="wyrxIgk_xjYUaQW7N5oR-62" style="edgeStyle=orthogonalEdgeStyle;rounded=0;orthogonalLoop=1;jettySize=auto;html=1;endArrow=none;startFill=0;" edge="1" parent="1" source="wyrxIgk_xjYUaQW7N5oR-60">
          <mxGeometry relative="1" as="geometry">
            <mxPoint x="690" y="590" as="targetPoint" />
          </mxGeometry>
        </mxCell>
        <mxCell id="wyrxIgk_xjYUaQW7N5oR-60" value="" style="ellipse;whiteSpace=wrap;html=1;aspect=fixed;" vertex="1" parent="1">
          <mxGeometry x="520" y="660" width="10" height="10" as="geometry" />
        </mxCell>
        <mxCell id="wyrxIgk_xjYUaQW7N5oR-63" value="" style="endArrow=none;html=1;rounded=0;edgeStyle=orthogonalEdgeStyle;startFill=0;" edge="1" parent="1">
          <mxGeometry width="50" height="50" relative="1" as="geometry">
            <mxPoint x="110" y="720" as="sourcePoint" />
            <mxPoint x="480" y="360" as="targetPoint" />
          </mxGeometry>
        </mxCell>
        <mxCell id="wyrxIgk_xjYUaQW7N5oR-66" style="edgeStyle=orthogonalEdgeStyle;rounded=0;orthogonalLoop=1;jettySize=auto;html=1;endArrow=none;startFill=0;" edge="1" parent="1" source="wyrxIgk_xjYUaQW7N5oR-65">
          <mxGeometry relative="1" as="geometry">
            <mxPoint x="650" y="590" as="targetPoint" />
          </mxGeometry>
        </mxCell>
        <mxCell id="wyrxIgk_xjYUaQW7N5oR-65" value="" style="ellipse;whiteSpace=wrap;html=1;aspect=fixed;" vertex="1" parent="1">
          <mxGeometry x="475" y="630" width="10" height="10" as="geometry" />
        </mxCell>
        <mxCell id="wyrxIgk_xjYUaQW7N5oR-67" value="" style="group" vertex="1" connectable="0" parent="1">
          <mxGeometry x="170" y="360" width="160" height="100" as="geometry" />
        </mxCell>
        <mxCell id="wyrxIgk_xjYUaQW7N5oR-76" style="edgeStyle=orthogonalEdgeStyle;rounded=0;orthogonalLoop=1;jettySize=auto;html=1;exitX=0;exitY=0.75;exitDx=0;exitDy=0;endArrow=none;startFill=0;" edge="1" parent="wyrxIgk_xjYUaQW7N5oR-67" source="wyrxIgk_xjYUaQW7N5oR-68">
          <mxGeometry relative="1" as="geometry">
            <mxPoint x="220" y="-90" as="targetPoint" />
          </mxGeometry>
        </mxCell>
        <mxCell id="wyrxIgk_xjYUaQW7N5oR-77" style="edgeStyle=orthogonalEdgeStyle;rounded=0;orthogonalLoop=1;jettySize=auto;html=1;exitX=0;exitY=0.25;exitDx=0;exitDy=0;endArrow=none;startFill=0;" edge="1" parent="wyrxIgk_xjYUaQW7N5oR-67" source="wyrxIgk_xjYUaQW7N5oR-68">
          <mxGeometry relative="1" as="geometry">
            <mxPoint x="220" y="150" as="targetPoint" />
          </mxGeometry>
        </mxCell>
        <mxCell id="wyrxIgk_xjYUaQW7N5oR-68" value="DMux" style="triangle;whiteSpace=wrap;html=1;direction=west;" vertex="1" parent="wyrxIgk_xjYUaQW7N5oR-67">
          <mxGeometry x="40" width="80" height="80" as="geometry" />
        </mxCell>
        <mxCell id="wyrxIgk_xjYUaQW7N5oR-69" value="" style="endArrow=classic;html=1;rounded=0;entryX=1;entryY=0.5;entryDx=0;entryDy=0;" edge="1" parent="wyrxIgk_xjYUaQW7N5oR-67" target="wyrxIgk_xjYUaQW7N5oR-68">
          <mxGeometry width="50" height="50" relative="1" as="geometry">
            <mxPoint y="40" as="sourcePoint" />
            <mxPoint x="-10" as="targetPoint" />
          </mxGeometry>
        </mxCell>
        <mxCell id="wyrxIgk_xjYUaQW7N5oR-70" value="" style="endArrow=none;html=1;rounded=0;entryX=1;entryY=0.5;entryDx=0;entryDy=0;startFill=0;" edge="1" parent="wyrxIgk_xjYUaQW7N5oR-67">
          <mxGeometry width="50" height="50" relative="1" as="geometry">
            <mxPoint x="120" y="20" as="sourcePoint" />
            <mxPoint x="160" y="20" as="targetPoint" />
          </mxGeometry>
        </mxCell>
        <mxCell id="wyrxIgk_xjYUaQW7N5oR-71" value="" style="endArrow=none;html=1;rounded=0;entryX=1;entryY=0.5;entryDx=0;entryDy=0;startFill=0;" edge="1" parent="wyrxIgk_xjYUaQW7N5oR-67">
          <mxGeometry width="50" height="50" relative="1" as="geometry">
            <mxPoint x="120" y="60" as="sourcePoint" />
            <mxPoint x="160" y="60" as="targetPoint" />
          </mxGeometry>
        </mxCell>
        <mxCell id="wyrxIgk_xjYUaQW7N5oR-72" value="" style="endArrow=classic;html=1;rounded=0;entryX=0.5;entryY=0;entryDx=0;entryDy=0;" edge="1" parent="wyrxIgk_xjYUaQW7N5oR-67" target="wyrxIgk_xjYUaQW7N5oR-68">
          <mxGeometry width="50" height="50" relative="1" as="geometry">
            <mxPoint x="80" y="100" as="sourcePoint" />
            <mxPoint x="100" y="130" as="targetPoint" />
          </mxGeometry>
        </mxCell>
        <mxCell id="wyrxIgk_xjYUaQW7N5oR-73" value="sel" style="edgeLabel;html=1;align=center;verticalAlign=middle;resizable=0;points=[];" vertex="1" connectable="0" parent="wyrxIgk_xjYUaQW7N5oR-72">
          <mxGeometry x="0.0274" relative="1" as="geometry">
            <mxPoint as="offset" />
          </mxGeometry>
        </mxCell>
        <mxCell id="wyrxIgk_xjYUaQW7N5oR-74" value="" style="endArrow=none;html=1;rounded=0;edgeStyle=orthogonalEdgeStyle;startFill=0;" edge="1" parent="1">
          <mxGeometry width="50" height="50" relative="1" as="geometry">
            <mxPoint x="110" y="780" as="sourcePoint" />
            <mxPoint x="250" y="460" as="targetPoint" />
          </mxGeometry>
        </mxCell>
        <mxCell id="wyrxIgk_xjYUaQW7N5oR-75" value="" style="endArrow=none;html=1;rounded=0;startFill=0;" edge="1" parent="1">
          <mxGeometry width="50" height="50" relative="1" as="geometry">
            <mxPoint x="100" y="400" as="sourcePoint" />
            <mxPoint x="170" y="400" as="targetPoint" />
          </mxGeometry>
        </mxCell>
      </root>
    </mxGraphModel>
  </diagram>
</mxfile>
